<?xml version="1.0" standalone="no"?>
<!DOCTYPE svg PUBLIC "-//W3C//DTD SVG 20010904//EN"
 "http://www.w3.org/TR/2001/REC-SVG-20010904/DTD/svg10.dtd">
<svg version="1.0" xmlns="http://www.w3.org/2000/svg"
 width="12000.000000pt" height="12000.000000pt" viewBox="0 0 12000.000000 12000.000000"
 preserveAspectRatio="xMidYMid meet">

<g transform="translate(0.000000,12000.000000) scale(0.100000,-0.100000)"
fill="#000000" stroke="none">
<path d="M0 60000 l0 -60000 59980 0 59980 0 0 60000 0 60000 -59980 0 -59980
0 0 -60000z m60780 46006 c1699 -124 3220 -535 4715 -1271 2496 -1230 4479
-3218 5695 -5709 1215 -2488 1576 -5288 1029 -7976 -182 -891 -456 -1745 -832
-2590 -57 -129 -124 -275 -149 -325 -25 -49 -48 -99 -52 -111 -6 -21 -6 -21
396 -27 524 -9 950 -32 1508 -83 3109 -282 6116 -1246 8824 -2828 4140 -2420
7350 -6145 9117 -10583 1286 -3231 1762 -6732 1393 -10243 -230 -2196 -816
-4385 -1715 -6411 l-109 -247 3389 -7233 c1864 -3979 3427 -7308 3474 -7399
47 -91 111 -226 143 -300 31 -74 95 -223 141 -330 218 -500 381 -909 548
-1370 1082 -2994 1478 -6196 1159 -9375 -445 -4431 -2273 -8649 -5199 -11990
-589 -673 -1327 -1411 -2000 -2000 -1037 -908 -2199 -1739 -3395 -2427 -668
-385 -1561 -838 -1871 -951 -68 -25 -135 -50 -149 -55 -47 -20 -225 -71 -320
-92 -52 -12 -122 -28 -155 -35 -33 -8 -96 -17 -140 -21 -44 -4 -84 -10 -90
-14 -5 -4 -62 -11 -125 -14 -63 -3 -181 -12 -262 -18 -381 -30 -913 64 -1353
239 -451 179 -835 429 -1184 768 -373 363 -639 761 -844 1260 -29 72 -3085
6602 -6791 14513 l-6739 14382 -8881 -2 -8881 -3 -6742 -14390 c-3708 -7915
-6761 -14437 -6784 -14495 -492 -1232 -1601 -2095 -2896 -2254 -202 -25 -321
-29 -528 -17 -333 19 -533 49 -810 121 -172 45 -240 68 -415 140 -69 29 -152
62 -185 73 -78 27 -827 401 -1113 556 -1494 809 -2903 1801 -4147 2921 -609
547 -1263 1211 -1798 1823 -2119 2422 -3678 5321 -4532 8427 -447 1625 -695
3260 -756 4990 -13 362 -7 1351 11 1670 82 1524 271 2803 620 4200 278 1114
684 2308 1140 3350 62 140 127 296 145 345 51 138 99 247 179 400 40 77 806
1704 1701 3615 895 1911 1658 3540 1696 3618 39 79 5189 11066 11445 24415
6257 13350 11434 24387 11505 24527 1370 2715 3677 4829 6514 5970 1226 492
2593 797 3910 870 105 6 217 12 250 14 163 10 1095 -3 1295 -18z"/>
<path d="M59690 98894 c-25 -2 -103 -9 -175 -15 -712 -59 -1441 -276 -2089
-622 -957 -510 -1737 -1299 -2227 -2252 -78 -153 -20509 -43724 -20509 -43739
0 -3 2670 -6 5933 -6 l5932 0 7889 16833 c4339 9257 8436 17998 9104 19422
668 1425 1254 2680 1302 2790 273 626 402 1109 466 1745 21 205 24 693 6 900
-102 1160 -553 2239 -1298 3103 -150 175 -447 469 -614 607 -831 690 -1795
1094 -2900 1215 -137 15 -710 28 -820 19z"/>
<path d="M67786 80774 c-26 -55 -3043 -6491 -6704 -14304 l-6658 -14205 8060
-3 c7858 -3 8945 0 9406 28 2000 120 3811 596 5555 1460 1773 879 3325 2099
4604 3620 1917 2279 3073 5087 3306 8030 56 708 59 1506 10 2190 -125 1709
-530 3304 -1240 4885 -77 171 -363 743 -460 920 -557 1015 -1225 1946 -2019
2815 -340 371 -874 888 -1256 1215 -2231 1912 -4959 3078 -7865 3364 -660 65
-918 72 -2911 78 l-1782 5 -46 -98z"/>
<path d="M85804 50949 c-30 -34 -423 -391 -601 -547 -1995 -1742 -4338 -3123
-6808 -4015 -620 -224 -1344 -448 -1913 -593 -55 -14 -72 -22 -69 -34 6 -20
10808 -23053 10816 -23062 4 -5 90 63 191 150 1319 1129 2406 2469 3245 4002
142 260 390 763 511 1035 644 1458 1042 2988 1189 4565 43 465 49 632 50 1285
0 634 -4 755 -41 1195 -105 1273 -390 2554 -834 3755 -138 373 -317 806 -373
899 -57 98 -145 283 -200 421 -64 161 -5121 10958 -5134 10962 -5 2 -18 -6
-29 -18z"/>
<path d="M31311 45078 c-16 -35 -538 -1152 -1161 -2483 -623 -1331 -1163
-2494 -1200 -2585 -67 -164 -140 -319 -199 -419 -93 -158 -360 -837 -531
-1351 -1168 -3507 -926 -7314 678 -10697 578 -1220 1343 -2358 2303 -3429 178
-199 784 -805 984 -985 189 -170 506 -441 510 -437 4 3 10479 22365 10501
22416 l14 32 -5935 0 -5936 0 -28 -62z"/>
</g>
</svg>
