<?xml version="1.0" standalone="no"?>
<!DOCTYPE svg PUBLIC "-//W3C//DTD SVG 20010904//EN"
 "http://www.w3.org/TR/2001/REC-SVG-20010904/DTD/svg10.dtd">
<svg version="1.0" xmlns="http://www.w3.org/2000/svg"
 width="12000.000000pt" height="12000.000000pt" viewBox="0 0 12000.000000 12000.000000"
 preserveAspectRatio="xMidYMid meet">

<g transform="translate(0.000000,12000.000000) scale(0.100000,-0.100000)"
fill="#000000" stroke="none">
<path d="M59320 108279 c-1458 -81 -2826 -375 -4120 -884 -2004 -787 -3774
-2043 -5174 -3670 -688 -800 -1293 -1711 -1774 -2670 -52 -104 -5470 -11658
-12039 -25675 -6570 -14017 -11976 -25548 -12013 -25625 -37 -77 -834 -1776
-1770 -3775 -936 -1999 -1735 -3699 -1776 -3777 -92 -177 -153 -311 -214 -473
-26 -69 -100 -246 -165 -395 -1719 -3962 -2257 -8332 -1549 -12590 369 -2220
1059 -4344 2069 -6367 164 -327 186 -370 328 -633 2058 -3819 5192 -6967 9007
-9047 462 -252 1129 -587 1260 -633 36 -13 121 -46 190 -75 229 -96 351 -132
650 -195 225 -47 362 -63 648 -77 187 -8 276 -8 389 1 592 49 1155 236 1669
554 370 229 741 570 1017 935 193 254 374 575 488 862 28 71 14114 30152
14185 30293 l24 47 9318 0 9318 0 18 -37 c202 -419 14165 -30240 14195 -30315
98 -246 253 -529 415 -758 256 -363 604 -705 966 -949 317 -214 694 -393 1045
-494 339 -98 731 -156 985 -144 289 14 487 27 520 36 19 6 73 14 120 19 47 5
139 22 205 37 66 15 140 31 165 35 25 5 70 18 100 29 30 11 64 20 76 21 11 0
24 3 28 7 7 7 10 9 198 76 305 110 1266 597 1928 977 2617 1500 4900 3511
6712 5910 1462 1936 2591 4075 3369 6380 1019 3020 1387 6197 1083 9350 -222
2307 -812 4596 -1730 6717 -64 147 -139 322 -166 388 -73 175 -152 344 -222
475 -33 63 -1663 3535 -3621 7715 l-3561 7600 59 130 c94 208 256 589 367 864
897 2235 1431 4615 1575 7021 53 895 53 1880 0 2760 -371 6106 -3179 11747
-7825 15721 -3713 3175 -8344 5055 -13190 5353 -343 22 -662 34 -1037 42 -178
4 -323 10 -323 14 0 3 44 100 99 216 657 1393 1066 2897 1200 4419 33 370 42
546 48 970 24 1642 -256 3236 -844 4804 -934 2493 -2589 4622 -4767 6135
-1634 1135 -3513 1892 -5466 2200 -367 58 -727 99 -1155 132 -244 18 -1282 28
-1535 13z m1210 -7484 c1252 -127 2390 -640 3297 -1487 794 -741 1368 -1728
1627 -2798 114 -467 159 -847 159 -1330 0 -293 -10 -454 -43 -715 -66 -512
-220 -1067 -421 -1517 -28 -62 -56 -129 -63 -148 -8 -19 -589 -1263 -1293
-2765 -704 -1501 -1335 -2847 -1402 -2990 -66 -143 -3803 -8116 -8303 -17717
l-8183 -17458 -6229 0 c-5927 0 -6228 1 -6224 18 7 24 21417 45690 21494
45843 620 1240 1728 2230 3046 2723 551 206 1063 314 1698 360 126 9 693 -4
840 -19z m11715 -18914 c438 -21 758 -45 1125 -87 2405 -271 4714 -1128 6713
-2493 1888 -1288 3498 -3028 4619 -4991 1629 -2850 2270 -6152 1832 -9435
-396 -2974 -1690 -5766 -3713 -8015 -903 -1004 -1933 -1881 -3056 -2602 -2172
-1395 -4615 -2190 -7215 -2348 -531 -32 -777 -33 -9582 -37 l-8817 -3 24 52
c14 29 3180 6787 7037 15016 l7013 14964 1900 -5 c1085 -3 1994 -10 2120 -16z
m17545 -37038 c1465 -3127 2689 -5750 2721 -5827 75 -188 105 -251 182 -392
68 -124 151 -309 267 -599 1172 -2929 1393 -6125 633 -9190 -733 -2963 -2320
-5605 -4568 -7609 -282 -251 -436 -379 -444 -370 -6 7 -11340 24166 -11358
24210 -2 7 46 24 124 44 607 155 1436 414 2048 640 2495 919 4764 2241 6805
3964 259 219 548 476 809 719 57 53 107 97 110 97 4 0 1205 -2559 2671 -5687z
m-47393 -440 c-2 -5 -2485 -5306 -5517 -11781 -3033 -6475 -5518 -11771 -5522
-11770 -4 2 -76 61 -160 133 -505 428 -1072 984 -1518 1485 -2145 2414 -3459
5492 -3730 8740 -39 474 -45 636 -45 1245 0 609 6 778 46 1245 115 1378 417
2717 904 4015 172 459 278 702 435 1005 38 74 91 189 117 255 36 92 2427 5224
2514 5398 l19 37 6231 0 c3427 0 6228 -3 6226 -7z"/>
</g>
</svg>
